<svg width="162" height="50" viewBox="0 0 162 50" fill="none" xmlns="http://www.w3.org/2000/svg">
<path d="M50 25C50 29.9445 48.5338 34.778 45.7867 38.8893C43.0397 43.0005 39.1352 46.2048 34.5671 48.097C29.9989 49.9892 24.9723 50.4843 20.1227 49.5196C15.2732 48.555 10.8186 46.174 7.32233 42.6777C3.82602 39.1814 1.445 34.7268 0.480368 29.8773C-0.484263 25.0277 0.0108209 20.0011 1.90301 15.4329C3.7952 10.8648 6.99952 6.96029 11.1107 4.21326C15.222 1.46622 20.0555 -5.8963e-08 25 0L25 25H50Z" fill="#A1B748"/>
<path d="M44 25C44 20.6042 42.4758 16.3445 39.6872 12.9465C36.8986 9.54857 33.018 7.22265 28.7067 6.36508C24.3954 5.50751 19.9202 6.17135 16.0435 8.2435C12.1668 10.3156 9.12847 13.6679 7.44629 17.729C5.76411 21.7902 5.54211 26.3089 6.81813 30.5154C8.09415 34.7219 10.7892 38.3558 14.4442 40.7979C18.0991 43.2401 22.4877 44.3394 26.8623 43.9085C31.2369 43.4777 35.3268 41.5433 38.435 38.435L25 25H44Z" fill="#4F4F4F"/>
<path d="M50 25C50 29.9445 48.5338 34.778 45.7867 38.8893C43.0397 43.0005 39.1352 46.2048 34.5671 48.097C29.9989 49.9892 24.9723 50.4843 20.1227 49.5196C15.2732 48.555 10.8186 46.174 7.32233 42.6777C3.82602 39.1814 1.445 34.7268 0.480368 29.8773C-0.484263 25.0277 0.0108209 20.0011 1.90301 15.4329C3.7952 10.8648 6.99952 6.96029 11.1107 4.21326C15.222 1.46622 20.0555 -5.8963e-08 25 0L25 25H50Z" fill="url(#paint0_linear_406_849)"/>
<path d="M73.916 35.36C71.516 35.36 69.524 35.024 67.94 34.352C66.356 33.656 65.156 32.756 64.34 31.652C63.524 30.548 63.092 29.372 63.044 28.124C63.044 27.932 63.116 27.764 63.26 27.62C63.428 27.452 63.62 27.368 63.836 27.368H68.372C68.708 27.368 68.96 27.428 69.128 27.548C69.32 27.668 69.488 27.824 69.632 28.016C69.824 28.376 70.088 28.724 70.424 29.06C70.784 29.396 71.24 29.672 71.792 29.888C72.368 30.08 73.076 30.176 73.916 30.176C75.308 30.176 76.352 29.96 77.048 29.528C77.768 29.096 78.128 28.508 78.128 27.764C78.128 27.236 77.936 26.804 77.552 26.468C77.168 26.108 76.544 25.796 75.68 25.532C74.84 25.244 73.712 24.956 72.296 24.668C70.472 24.284 68.912 23.792 67.616 23.192C66.344 22.568 65.372 21.764 64.7 20.78C64.028 19.772 63.692 18.524 63.692 17.036C63.692 15.572 64.1 14.264 64.916 13.112C65.756 11.96 66.92 11.06 68.408 10.412C69.896 9.764 71.66 9.44 73.7 9.44C75.356 9.44 76.808 9.656 78.056 10.088C79.328 10.52 80.396 11.096 81.26 11.816C82.124 12.536 82.772 13.304 83.204 14.12C83.66 14.912 83.9 15.692 83.924 16.46C83.924 16.652 83.852 16.832 83.708 17C83.564 17.144 83.384 17.216 83.168 17.216H78.416C78.152 17.216 77.924 17.168 77.732 17.072C77.54 16.976 77.372 16.82 77.228 16.604C77.084 16.076 76.7 15.62 76.076 15.236C75.476 14.828 74.684 14.624 73.7 14.624C72.644 14.624 71.816 14.816 71.216 15.2C70.64 15.56 70.352 16.124 70.352 16.892C70.352 17.372 70.508 17.792 70.82 18.152C71.156 18.512 71.696 18.824 72.44 19.088C73.208 19.352 74.252 19.628 75.572 19.916C77.756 20.324 79.52 20.84 80.864 21.464C82.208 22.064 83.192 22.856 83.816 23.84C84.44 24.8 84.752 26.012 84.752 27.476C84.752 29.108 84.284 30.524 83.348 31.724C82.436 32.9 81.164 33.8 79.532 34.424C77.9 35.048 76.028 35.36 73.916 35.36Z" fill="url(#paint1_linear_406_849)"/>
<path d="M92.3879 35C91.9799 35 91.6559 34.88 91.4159 34.64C91.1759 34.4 91.0319 34.124 90.9839 33.812L87.0599 10.808C87.0359 10.76 87.0239 10.712 87.0239 10.664C87.0239 10.616 87.0239 10.58 87.0239 10.556C87.0239 10.364 87.0959 10.196 87.2399 10.052C87.4079 9.884 87.5879 9.8 87.7799 9.8H92.2439C92.9159 9.8 93.2879 10.064 93.3599 10.592L95.6999 24.668L98.2919 16.352C98.3639 16.16 98.4839 15.956 98.6519 15.74C98.8199 15.5 99.0959 15.38 99.4799 15.38H102.072C102.48 15.38 102.768 15.5 102.936 15.74C103.104 15.956 103.212 16.16 103.26 16.352L105.852 24.632L108.192 10.592C108.264 10.064 108.636 9.8 109.308 9.8H113.772C113.988 9.8 114.168 9.884 114.312 10.052C114.456 10.196 114.528 10.364 114.528 10.556C114.528 10.58 114.528 10.616 114.528 10.664C114.528 10.712 114.528 10.76 114.528 10.808L110.604 33.812C110.556 34.124 110.412 34.4 110.172 34.64C109.932 34.88 109.608 35 109.2 35H105.78C105.372 35 105.06 34.892 104.844 34.676C104.628 34.46 104.484 34.256 104.412 34.064L100.776 23.768L97.1399 34.064C97.0679 34.256 96.9239 34.46 96.7079 34.676C96.5159 34.892 96.2159 35 95.8079 35H92.3879Z" fill="url(#paint2_linear_406_849)"/>
<defs>
<linearGradient id="paint0_linear_406_849" x1="10.2041" y1="25" x2="45.1814" y2="25" gradientUnits="userSpaceOnUse">
<stop offset="0.244792" stop-color="#A748B7"/>
<stop offset="1" stop-color="#882398"/>
</linearGradient>
<linearGradient id="paint1_linear_406_849" x1="62" y1="1" x2="119.871" y2="7.06524" gradientUnits="userSpaceOnUse">
<stop stop-color="#48B760"/>
<stop offset="1" stop-color="#6BB748"/>
</linearGradient>
<linearGradient id="paint2_linear_406_849" x1="73.0204" y1="22.5" x2="110.796" y2="22.5" gradientUnits="userSpaceOnUse">
<stop offset="0.244792" stop-color="#A748B7"/>
<stop offset="1" stop-color="#882398"/>
</linearGradient>
</defs>
</svg>
