<svg width="44" height="22" viewBox="0 0 44 22" fill="none" xmlns="http://www.w3.org/2000/svg">
<path d="M42.9912 1.48983C43.2986 0.630315 42.9912 0 41.5376 0H36.7222C35.497 0 34.937 0.545287 34.6296 1.14418C34.6296 1.14418 32.1813 6.17005 28.712 9.42883C27.5922 10.3771 27.0805 10.6765 26.4701 10.6765C26.1649 10.6765 25.7214 10.3771 25.7214 9.51756V1.48983C25.7214 0.458411 25.3678 0 24.3468 0H16.7801C16.016 0 15.5549 0.476895 15.5549 0.931608C15.5549 1.90758 17.2896 2.13309 17.4674 4.88355V10.8503C17.4674 12.1571 17.1886 12.3956 16.5737 12.3956C14.9423 12.3956 10.9723 7.3512 8.61624 1.57671C8.15732 0.454714 7.69401 0.00184918 6.46437 0.00184918H1.65123C0.274473 0.00184918 0 0.547136 0 1.14603C0 2.22181 1.63146 7.54529 7.59959 14.586C11.5783 19.3937 17.1798 22 22.2828 22C25.3415 22 25.7192 21.4214 25.7192 20.4233V16.7893C25.7192 15.6322 26.0112 15.3993 26.9795 15.3993C27.691 15.3993 28.9162 15.7024 31.7729 18.0185C35.0359 20.7652 35.576 21.9982 37.4095 21.9982H42.2226C43.5972 21.9982 44.2845 21.4196 43.8892 20.2773C43.4567 19.1405 41.8977 17.4861 39.8292 15.5286C38.705 14.4122 37.0252 13.2107 36.5136 12.61C35.8 11.8355 36.0064 11.4935 36.5136 10.8059C36.5158 10.8078 42.3807 3.85397 42.9912 1.48983Z" fill="white"/>
</svg>
